<?xml version="1.0" encoding="UTF-8" standalone="no"?>
<!DOCTYPE svg PUBLIC "-//W3C//DTD SVG 1.1//EN" "http://www.w3.org/Graphics/SVG/1.1/DTD/svg11.dtd">
<!-- Generated by Microsoft Visio, SVG Export workflow.svg Page-1 -->
<svg xmlns="http://www.w3.org/2000/svg" xmlns:xlink="http://www.w3.org/1999/xlink" xmlns:ev="http://www.w3.org/2001/xml-events"
		width="7.86162in" height="3.81231in" viewBox="0 0 566.037 274.486" xml:space="preserve" color-interpolation-filters="sRGB"
		class="st20">
	<style type="text/css">
	<![CDATA[
		.st1 {fill:#d8d8d8;stroke:#000000;stroke-linecap:round;stroke-linejoin:round;stroke-width:1.5}
		.st2 {fill:#000000;font-family:CMU Serif;font-size:0.833336em;font-weight:bold}
		.st3 {fill:#ffffff;stroke:#000000;stroke-linecap:round;stroke-linejoin:round;stroke-width:1.5}
		.st4 {fill:#000000;font-family:CMU Serif;font-size:0.833336em}
		.st5 {font-size:1em}
		.st6 {fill:#000000}
		.st7 {marker-end:url(#mrkr4-31);stroke:#000000;stroke-dasharray:1.5,3;stroke-linecap:round;stroke-linejoin:round;stroke-width:1.5}
		.st8 {fill:#000000;fill-opacity:1;stroke:#000000;stroke-opacity:1;stroke-width:0.37313432835821}
		.st9 {marker-end:url(#mrkr4-51);stroke:#000000;stroke-linecap:round;stroke-linejoin:round;stroke-width:1.5}
		.st10 {fill:#000000;fill-opacity:1;stroke:#000000;stroke-opacity:1;stroke-width:0.51020408163265}
		.st11 {marker-end:url(#mrkr4-31);stroke:#000000;stroke-linecap:round;stroke-linejoin:round;stroke-width:1.5}
		.st12 {marker-end:url(#mrkr4-92);stroke:#00b050;stroke-linecap:round;stroke-linejoin:round;stroke-width:1.5}
		.st13 {fill:#00b050;fill-opacity:1;stroke:#00b050;stroke-opacity:1;stroke-width:0.51020408163265}
		.st14 {marker-end:url(#mrkr4-103);stroke:#c00000;stroke-linecap:round;stroke-linejoin:round;stroke-width:1.5}
		.st15 {fill:#c00000;fill-opacity:1;stroke:#c00000;stroke-opacity:1;stroke-width:0.51020408163265}
		.st16 {fill:#000000;stroke:none;stroke-linecap:round;stroke-linejoin:round;stroke-width:6.375}
		.st17 {marker-end:url(#mrkr4-186);stroke:#000000;stroke-linecap:round;stroke-linejoin:round;stroke-width:0.237638}
		.st18 {fill:#000000;fill-opacity:1;stroke:#000000;stroke-opacity:1;stroke-width:0.086174404659928}
		.st19 {fill:#ffffff;stroke:none;stroke-linecap:round;stroke-linejoin:round;stroke-width:0.75}
		.st20 {fill:none;fill-rule:evenodd;font-size:12px;overflow:visible;stroke-linecap:square;stroke-miterlimit:3}
	]]>
	</style>

	<defs id="Markers">
		<g id="lend4">
			<path d="M 2 1 L 0 0 L 2 -1 L 2 1 " style="stroke:none"/>
		</g>
		<marker id="mrkr4-31" class="st8" refX="-5.36" orient="auto" markerUnits="strokeWidth" overflow="visible">
			<use xlink:href="#lend4" transform="scale(-2.68,-2.68) "/>
		</marker>
		<marker id="mrkr4-51" class="st10" refX="-3.92" orient="auto" markerUnits="strokeWidth" overflow="visible">
			<use xlink:href="#lend4" transform="scale(-1.96,-1.96) "/>
		</marker>
		<marker id="mrkr4-92" class="st13" refX="-3.92" orient="auto" markerUnits="strokeWidth" overflow="visible">
			<use xlink:href="#lend4" transform="scale(-1.96,-1.96) "/>
		</marker>
		<marker id="mrkr4-103" class="st15" refX="-3.92" orient="auto" markerUnits="strokeWidth" overflow="visible">
			<use xlink:href="#lend4" transform="scale(-1.96,-1.96) "/>
		</marker>
		<marker id="mrkr4-186" class="st18" refX="-23.208747514911" orient="auto" markerUnits="strokeWidth" overflow="visible">
			<use xlink:href="#lend4" transform="scale(-11.604373757455,-11.604373757455) "/>
		</marker>
	</defs>
	<g>
		<title>Page-1</title>
		<g id="shape212-1" transform="translate(116.717,-18.8373)">
			<title>Rectangle.212</title>
			<desc>AYNEXT-ResTest</desc>
			<rect x="0" y="206.995" width="195.307" height="67.4908" class="st1"/>
			<text x="50.13" y="267.49" class="st2">AYNEXT-ResTest</text>		</g>
		<g id="shape4-4" transform="translate(116.717,-122.018)">
			<title>Rectangle</title>
			<desc>AYNEXT-DataGen</desc>
			<rect x="0" y="206.995" width="283.748" height="67.4908" class="st1"/>
			<text x="92.12" y="267.49" class="st2">AYNEXT-DataGen</text>		</g>
		<g id="shape3-7" transform="translate(317.584,-141.926)">
			<title>Rounded Rectangle.3</title>
			<desc>Negatives generation</desc>
			<path d="M9.35 274.49 L63.37 274.49 A9.34724 9.34724 -180 0 0 72.72 265.14 L72.72 248.18 A9.34724 9.34724 -180 0 0 63.37
						 238.83 L9.35 238.83 A9.34724 9.34724 -180 0 0 0 248.18 L0 265.14 A9.34724 9.34724 -180 0 0 9.35 274.49 Z"
					class="st3"/>
			<text x="15.28" y="253.66" class="st4">Negatives <tspan x="13.63" dy="1.2em" class="st5">generation</tspan></text>		</g>
		<g id="shape5-11" transform="translate(223.604,-141.926)">
			<title>Rounded Rectangle.5</title>
			<desc>Graph splitting</desc>
			<path d="M9.35 274.49 L63.37 274.49 A9.34724 9.34724 -180 0 0 72.72 265.14 L72.72 248.18 A9.34724 9.34724 -180 0 0 63.37
						 238.83 L9.35 238.83 A9.34724 9.34724 -180 0 0 0 248.18 L0 265.14 A9.34724 9.34724 -180 0 0 9.35 274.49 Z"
					class="st3"/>
			<text x="22.42" y="253.66" class="st4">Graph <tspan x="18.38" dy="1.2em" class="st5">splitting</tspan></text>		</g>
		<g id="shape6-15" transform="translate(128.753,-141.926)">
			<title>Rounded Rectangle.6</title>
			<desc>Pre-processing</desc>
			<path d="M9.46 274.49 L64.13 274.49 A9.45935 9.45935 -180 0 0 73.59 265.03 L73.59 248.29 A9.45935 9.45935 -180 0 0 64.13
						 238.83 L9.46 238.83 A9.45935 9.45935 -180 0 0 0 248.29 L0 265.03 A9.45935 9.45935 -180 0 0 9.46 274.49 Z"
					class="st3"/>
			<text x="5.36" y="259.66" class="st4">Pre-processing</text>		</g>
		<g id="group7-18" transform="translate(26.5748,-224.524)">
			<title>Document</title>
			<desc>Configuration</desc>
			<g id="shape8-19">
				<title>Sheet.8</title>
				<path d="M35.43 234.65 L26.62 225.27 L0 225.27 L0 274.49 L35.43 274.49 L35.43 234.65 Z" class="st3"/>
			</g>
			<g id="shape9-21" transform="translate(6.45915,-9.90019)">
				<title>Sheet.9</title>
				<path d="M13.29 274.49 L22.33 274.49 L22.33 273.24 L13.29 273.24 L13.29 274.49 ZM0 268.62 L22.33 268.62 L22.33 267.37
							 L0 267.37 L0 268.62 ZM0 262.76 L22.33 262.76 L22.33 261.51 L0 261.51 L0 262.76 ZM0 256.9 L22.33 256.9
							 L22.33 255.65 L0 255.65 L0 256.9 ZM0 251.03 L9.04 251.03 L9.04 249.78 L0 249.78 L0 251.03 ZM0 245.17
							 L9.04 245.17 L9.04 243.92 L0 243.92 L0 245.17 ZM19.91 235.5 L19.91 244.57 L28.43 244.57 L19.91 235.5
							 Z" class="st6"/>
			</g>
			<g id="shape7-24">
				<text x="-12.33" y="287.49" class="st4">Configuration</text>			</g>
		</g>
		<g id="shape92-26" transform="translate(77.0315,-166.838)">
			<title>Dynamic connector.92</title>
			<path d="M0 281.57 L43.68 281.57" class="st7"/>
		</g>
		<g id="group94-32" transform="translate(11.5512,-116.24)">
			<title>Sheet.94</title>
			<g id="shape93-33">
				<title>Rectangle.93</title>
				<desc>Knowledge Graph</desc>
				<rect x="0" y="187.463" width="65.4803" height="87.0236" class="st3"/>
				<text x="8.92" y="255.49" class="st4">Knowledge <tspan x="18.8" dy="1.2em" class="st5">Graph</tspan></text>			</g>
			<g id="group87-37" transform="translate(5.01989,-29.1799)">
				<title>Sheet.87</title>
				<g id="shape77-38" transform="translate(0,-18.7666)">
					<title>Circle</title>
					<path d="M0 267.46 A7.02241 7.02241 0 1 1 14.04 267.46 A7.02241 7.02241 0 1 1 -0 267.46 Z" class="st1"/>
				</g>
				<g id="shape78-40" transform="translate(20.1309,0)">
					<title>Circle.78</title>
					<path d="M0 267.46 A7.02241 7.02241 0 1 1 14.04 267.46 A7.02241 7.02241 0 1 1 -0 267.46 Z" class="st1"/>
				</g>
				<g id="shape79-42" transform="translate(40.2618,-18.7666)">
					<title>Circle.79</title>
					<path d="M0 267.46 A7.02241 7.02241 0 1 1 14.04 267.46 A7.02241 7.02241 0 1 1 -0 267.46 Z" class="st1"/>
				</g>
				<g id="shape80-44" transform="translate(20.1309,-36.7123)">
					<title>Circle.80</title>
					<path d="M0 267.46 A7.02241 7.02241 0 1 1 14.04 267.46 A7.02241 7.02241 0 1 1 -0 267.46 Z" class="st1"/>
				</g>
				<g id="shape82-46" transform="translate(10.0013,-23.4923)">
					<title>Dynamic connector</title>
					<path d="M2.16 276.98 L7.71 282.16" class="st9"/>
				</g>
				<g id="shape83-52" transform="translate(10.0013,-27.6752)">
					<title>Dynamic connector.83</title>
					<path d="M2.26 271.7 L7.52 267.01" class="st9"/>
				</g>
				<g id="shape84-57" transform="translate(14.0448,-18.7024)">
					<title>Dynamic connector.84</title>
					<path d="M0 267.4 L20.34 267.4" class="st9"/>
				</g>
				<g id="shape85-62" transform="translate(44.3054,-23.4923)">
					<title>Dynamic connector.85</title>
					<path d="M-2.16 276.98 L-7.71 282.16" class="st9"/>
				</g>
			</g>
		</g>
		<g id="shape95-67" transform="translate(62.0172,-249.13)">
			<title>Dynamic connector</title>
			<path d="M0 274.49 L196.57 274.49 L196.57 326.07" class="st7"/>
		</g>
		<g id="shape96-72" transform="translate(202.345,-166.838)">
			<title>Dynamic connector.96</title>
			<path d="M0 281.57 L13.22 281.57" class="st11"/>
		</g>
		<g id="shape97-77" transform="translate(296.324,-166.838)">
			<title>Dynamic connector.97</title>
			<path d="M0 281.57 L13.22 281.57" class="st11"/>
		</g>
		<g id="group168-82" transform="translate(428.686,-121.484)">
			<title>Sheet.168</title>
			<g id="shape167-83">
				<title>Rectangle.93</title>
				<desc>Train / Test splits</desc>
				<rect x="0" y="197.951" width="130.016" height="76.5354" class="st3"/>
				<text x="24.14" y="267.49" class="st4">Train / Test splits</text>			</g>
			<g id="group154-86" transform="translate(71.0551,-19.8425)">
				<title>Sheet.154</title>
				<g id="shape110-87" transform="translate(10.0013,-23.4923)">
					<title>Dynamic connector.110</title>
					<path d="M2.16 276.98 L7.71 282.16" class="st12"/>
				</g>
				<g id="shape112-93" transform="translate(14.0448,-18.7024)">
					<title>Dynamic connector.112</title>
					<path d="M0 267.4 L20.34 267.4" class="st12"/>
				</g>
				<g id="shape152-98" transform="translate(44.3054,-27.6752)">
					<title>Dynamic connector.152</title>
					<path d="M-2.26 271.7 L-7.52 267.01" class="st14"/>
				</g>
				<g id="shape153-104" transform="translate(24.1745,-41.8485)">
					<title>Dynamic connector.153</title>
					<path d="M-2.26 277.27 L-7.52 281.96" class="st14"/>
				</g>
				<g id="shape106-109" transform="translate(-3.9968E-15,-18.7666)">
					<title>Circle.106</title>
					<path d="M0 267.46 A7.02241 7.02241 0 1 1 14.04 267.46 A7.02241 7.02241 0 1 1 -0 267.46 Z" class="st1"/>
				</g>
				<g id="shape109-111" transform="translate(20.1309,-36.7123)">
					<title>Circle.109</title>
					<path d="M0 267.46 A7.02241 7.02241 0 1 1 14.04 267.46 A7.02241 7.02241 0 1 1 -0 267.46 Z" class="st1"/>
				</g>
				<g id="shape108-113" transform="translate(40.2618,-18.7666)">
					<title>Circle.108</title>
					<path d="M0 267.46 A7.02241 7.02241 0 1 1 14.04 267.46 A7.02241 7.02241 0 1 1 -0 267.46 Z" class="st1"/>
				</g>
				<g id="shape107-115" transform="translate(20.1309,5.68434E-14)">
					<title>Circle.107</title>
					<path d="M0 267.46 A7.02241 7.02241 0 1 1 14.04 267.46 A7.02241 7.02241 0 1 1 -0 267.46 Z" class="st1"/>
				</g>
			</g>
			<g id="group155-117" transform="translate(5.40986,-19.8425)">
				<title>Sheet.155</title>
				<g id="shape103-118" transform="translate(10.0013,-27.6752)">
					<title>Dynamic connector.83</title>
					<path d="M2.26 271.7 L7.52 267.01" class="st12"/>
				</g>
				<g id="shape105-123" transform="translate(44.3054,-23.4923)">
					<title>Dynamic connector.85</title>
					<path d="M-2.16 276.98 L-7.71 282.16" class="st12"/>
				</g>
				<g id="shape114-128" transform="translate(40.2618,-18.7024)">
					<title>Dynamic connector.114</title>
					<path d="M0 267.4 L-10.75 267.4 A2.3622 2.3622 -180 0 0 -15.47 267.4 L-20.34 267.4" class="st14"/>
				</g>
				<g id="shape115-133" transform="translate(20.0667,-14.0448)">
					<title>Dynamic connector.115</title>
					<path d="M7.09 274.49 L7.09 257.7" class="st14"/>
				</g>
				<g id="shape100-138" transform="translate(40.2618,-18.7666)">
					<title>Circle.79</title>
					<path d="M0 267.46 A7.02241 7.02241 0 1 1 14.04 267.46 A7.02241 7.02241 0 1 1 -0 267.46 Z" class="st1"/>
				</g>
				<g id="shape101-140" transform="translate(20.1309,-36.7123)">
					<title>Circle.80</title>
					<path d="M0 267.46 A7.02241 7.02241 0 1 1 14.04 267.46 A7.02241 7.02241 0 1 1 -0 267.46 Z" class="st1"/>
				</g>
				<g id="shape98-142" transform="translate(-3.9968E-15,-18.7666)">
					<title>Circle</title>
					<path d="M0 267.46 A7.02241 7.02241 0 1 1 14.04 267.46 A7.02241 7.02241 0 1 1 -0 267.46 Z" class="st1"/>
				</g>
				<g id="shape99-144" transform="translate(20.1309,0)">
					<title>Circle.78</title>
					<path d="M0 267.46 A7.02241 7.02241 0 1 1 14.04 267.46 A7.02241 7.02241 0 1 1 -0 267.46 Z" class="st1"/>
				</g>
			</g>
		</g>
		<g id="group169-146" transform="translate(428.686,-219.279)">
			<title>Document.169</title>
			<desc>Metadata files</desc>
			<g id="shape170-147">
				<title>Sheet.170</title>
				<path d="M35.43 234.65 L26.62 225.27 L0 225.27 L0 274.49 L35.43 274.49 L35.43 234.65 Z" class="st3"/>
			</g>
			<g id="shape171-149" transform="translate(6.45915,-9.90019)">
				<title>Sheet.171</title>
				<path d="M13.29 274.49 L22.33 274.49 L22.33 273.24 L13.29 273.24 L13.29 274.49 ZM0 268.62 L22.33 268.62 L22.33 267.37
							 L0 267.37 L0 268.62 ZM0 262.76 L22.33 262.76 L22.33 261.51 L0 261.51 L0 262.76 ZM0 256.9 L22.33 256.9
							 L22.33 255.65 L0 255.65 L0 256.9 ZM0 251.03 L9.04 251.03 L9.04 249.78 L0 249.78 L0 251.03 ZM0 245.17
							 L9.04 245.17 L9.04 243.92 L0 243.92 L0 245.17 ZM19.91 235.5 L19.91 244.57 L28.43 244.57 L19.91 235.5
							 Z" class="st6"/>
			</g>
			<g id="shape169-152">
				<text x="-13.45" y="287.49" class="st4">Metadata files</text>			</g>
		</g>
		<g id="shape172-154" transform="translate(390.303,-152.665)">
			<title>Dynamic connector.172</title>
			<path d="M0 267.4 L30.34 267.4" class="st7"/>
		</g>
		<g id="shape173-159" transform="translate(353.944,-177.577)">
			<title>Dynamic connector.173</title>
			<path d="M0 274.49 L0 208.18 L66.69 208.18" class="st7"/>
		</g>
		<g id="group174-164" transform="translate(428.686,-75.5302)">
			<title>Gears</title>
			<g id="shape175-165">
				<title>Sheet.175</title>
				<path d="M15.91 261.74 C16.22 262.25 16.43 262.81 16.61 263.41 L18.52 264.35 L18.52 266.49 L16.61 267.43 C16.43 268.03
							 16.22 268.58 15.91 269.1 L16.56 271.06 L15.04 272.6 L13 271.92 C12.48 272.22 11.91 272.43 11.3 272.6
							 L10.35 274.49 L8.17 274.49 L7.22 272.6 C6.61 272.43 6.04 272.22 5.52 271.92 L3.48 272.56 L1.96 271.06
							 L2.61 269.05 C2.3 268.54 2.09 267.99 1.91 267.39 L0 266.45 L0 264.31 L1.91 263.37 C2.09 262.81 2.3 262.21
							 2.61 261.7 L1.96 259.69 L3.48 258.19 L5.52 258.87 C6.04 258.58 6.61 258.36 7.22 258.19 L8.17 256.31
							 L10.35 256.31 L11.3 258.19 C11.87 258.36 12.48 258.58 13 258.87 L15.04 258.19 L16.61 259.73 L15.91 261.74
							 ZM9.26 268.63 C11.09 268.63 12.52 267.17 12.52 265.42 C12.52 263.67 11.09 262.21 9.26 262.21 C7.48 262.21
							 6 263.62 6 265.42 C6 267.17 7.43 268.63 9.26 268.63 ZM26.43 247.84 L28.35 248.78 L28.35 250.92 L26.43
							 251.86 C26.26 252.42 26 253.02 25.69 253.53 L26.39 255.54 L24.82 257.04 L22.78 256.35 C22.26 256.65
							 21.69 256.86 21.09 257.04 L20.13 258.92 L17.96 258.92 L17 257.04 C16.39 256.86 15.83 256.65 15.3 256.35
							 L13.26 257.04 L11.74 255.54 L12.43 253.53 C12.13 253.02 11.91 252.46 11.74 251.86 L9.83 250.92 L9.83
							 248.78 L11.74 247.84 C11.91 247.24 12.13 246.69 12.43 246.17 L11.74 244.16 L13.3 242.62 L15.35 243.31
							 C15.87 243.01 16.43 242.79 17.04 242.62 L18 240.74 L20.17 240.74 L21.13 242.62 C21.74 242.79 22.3 243.01
							 22.82 243.31 L24.87 242.62 L26.43 244.16 L25.74 246.17 C26.04 246.69 26.26 247.24 26.43 247.84 ZM19.09
							 253.06 C20.87 253.06 22.35 251.6 22.35 249.85 C22.35 248.1 20.91 246.64 19.09 246.64 C17.3 246.64 15.83
							 248.1 15.83 249.85 C15.83 251.6 17.26 253.06 19.09 253.06 Z" class="st16"/>
			</g>
		</g>
		<g id="group176-167" transform="translate(479.521,-75.5302)">
			<title>Gears.176</title>
			<g id="shape177-168">
				<title>Sheet.177</title>
				<path d="M15.91 261.74 C16.22 262.25 16.43 262.81 16.61 263.41 L18.52 264.35 L18.52 266.49 L16.61 267.43 C16.43 268.03
							 16.22 268.58 15.91 269.1 L16.56 271.06 L15.04 272.6 L13 271.92 C12.48 272.22 11.91 272.43 11.3 272.6
							 L10.35 274.49 L8.17 274.49 L7.22 272.6 C6.61 272.43 6.04 272.22 5.52 271.92 L3.48 272.56 L1.96 271.06
							 L2.61 269.05 C2.3 268.54 2.09 267.99 1.91 267.39 L0 266.45 L0 264.31 L1.91 263.37 C2.09 262.81 2.3 262.21
							 2.61 261.7 L1.96 259.69 L3.48 258.19 L5.52 258.87 C6.04 258.58 6.61 258.36 7.22 258.19 L8.17 256.31
							 L10.35 256.31 L11.3 258.19 C11.87 258.36 12.48 258.58 13 258.87 L15.04 258.19 L16.61 259.73 L15.91 261.74
							 ZM9.26 268.63 C11.09 268.63 12.52 267.17 12.52 265.42 C12.52 263.67 11.09 262.21 9.26 262.21 C7.48 262.21
							 6 263.62 6 265.42 C6 267.17 7.43 268.63 9.26 268.63 ZM26.43 247.84 L28.35 248.78 L28.35 250.92 L26.43
							 251.86 C26.26 252.42 26 253.02 25.69 253.53 L26.39 255.54 L24.82 257.04 L22.78 256.35 C22.26 256.65
							 21.69 256.86 21.09 257.04 L20.13 258.92 L17.96 258.92 L17 257.04 C16.39 256.86 15.83 256.65 15.3 256.35
							 L13.26 257.04 L11.74 255.54 L12.43 253.53 C12.13 253.02 11.91 252.46 11.74 251.86 L9.83 250.92 L9.83
							 248.78 L11.74 247.84 C11.91 247.24 12.13 246.69 12.43 246.17 L11.74 244.16 L13.3 242.62 L15.35 243.31
							 C15.87 243.01 16.43 242.79 17.04 242.62 L18 240.74 L20.17 240.74 L21.13 242.62 C21.74 242.79 22.3 243.01
							 22.82 243.31 L24.87 242.62 L26.43 244.16 L25.74 246.17 C26.04 246.69 26.26 247.24 26.43 247.84 ZM19.09
							 253.06 C20.87 253.06 22.35 251.6 22.35 249.85 C22.35 248.1 20.91 246.64 19.09 246.64 C17.3 246.64 15.83
							 248.1 15.83 249.85 C15.83 251.6 17.26 253.06 19.09 253.06 Z" class="st16"/>
			</g>
		</g>
		<g id="group178-170" transform="translate(530.355,-75.5302)">
			<title>Gears.178</title>
			<g id="shape179-171">
				<title>Sheet.179</title>
				<path d="M15.91 261.74 C16.22 262.25 16.43 262.81 16.61 263.41 L18.52 264.35 L18.52 266.49 L16.61 267.43 C16.43 268.03
							 16.22 268.58 15.91 269.1 L16.56 271.06 L15.04 272.6 L13 271.92 C12.48 272.22 11.91 272.43 11.3 272.6
							 L10.35 274.49 L8.17 274.49 L7.22 272.6 C6.61 272.43 6.04 272.22 5.52 271.92 L3.48 272.56 L1.96 271.06
							 L2.61 269.05 C2.3 268.54 2.09 267.99 1.91 267.39 L0 266.45 L0 264.31 L1.91 263.37 C2.09 262.81 2.3 262.21
							 2.61 261.7 L1.96 259.69 L3.48 258.19 L5.52 258.87 C6.04 258.58 6.61 258.36 7.22 258.19 L8.17 256.31
							 L10.35 256.31 L11.3 258.19 C11.87 258.36 12.48 258.58 13 258.87 L15.04 258.19 L16.61 259.73 L15.91 261.74
							 ZM9.26 268.63 C11.09 268.63 12.52 267.17 12.52 265.42 C12.52 263.67 11.09 262.21 9.26 262.21 C7.48 262.21
							 6 263.62 6 265.42 C6 267.17 7.43 268.63 9.26 268.63 ZM26.43 247.84 L28.35 248.78 L28.35 250.92 L26.43
							 251.86 C26.26 252.42 26 253.02 25.69 253.53 L26.39 255.54 L24.82 257.04 L22.78 256.35 C22.26 256.65
							 21.69 256.86 21.09 257.04 L20.13 258.92 L17.96 258.92 L17 257.04 C16.39 256.86 15.83 256.65 15.3 256.35
							 L13.26 257.04 L11.74 255.54 L12.43 253.53 C12.13 253.02 11.91 252.46 11.74 251.86 L9.83 250.92 L9.83
							 248.78 L11.74 247.84 C11.91 247.24 12.13 246.69 12.43 246.17 L11.74 244.16 L13.3 242.62 L15.35 243.31
							 C15.87 243.01 16.43 242.79 17.04 242.62 L18 240.74 L20.17 240.74 L21.13 242.62 C21.74 242.79 22.3 243.01
							 22.82 243.31 L24.87 242.62 L26.43 244.16 L25.74 246.17 C26.04 246.69 26.26 247.24 26.43 247.84 ZM19.09
							 253.06 C20.87 253.06 22.35 251.6 22.35 249.85 C22.35 248.1 20.91 246.64 19.09 246.64 C17.3 246.64 15.83
							 248.1 15.83 249.85 C15.83 251.6 17.26 253.06 19.09 253.06 Z" class="st16"/>
			</g>
		</g>
		<g id="group189-173" transform="translate(351.709,-32.0037)">
			<title>Document.189</title>
			<desc>Tech results</desc>
			<g id="shape190-174">
				<title>Sheet.190</title>
				<path d="M35.43 234.65 L26.62 225.27 L0 225.27 L0 274.49 L35.43 274.49 L35.43 234.65 Z" class="st3"/>
			</g>
			<g id="shape191-176" transform="translate(6.45915,-9.90019)">
				<title>Sheet.191</title>
				<path d="M13.29 274.49 L22.33 274.49 L22.33 273.24 L13.29 273.24 L13.29 274.49 ZM0 268.62 L22.33 268.62 L22.33 267.37
							 L0 267.37 L0 268.62 ZM0 262.76 L22.33 262.76 L22.33 261.51 L0 261.51 L0 262.76 ZM0 256.9 L22.33 256.9
							 L22.33 255.65 L0 255.65 L0 256.9 ZM0 251.03 L9.04 251.03 L9.04 249.78 L0 249.78 L0 251.03 ZM0 245.17
							 L9.04 245.17 L9.04 243.92 L0 243.92 L0 245.17 ZM19.91 235.5 L19.91 244.57 L28.43 244.57 L19.91 235.5
							 Z" class="st6"/>
			</g>
			<g id="shape189-179">
				<text x="-8.97" y="287.49" class="st4">Tech results</text>			</g>
		</g>
		<g id="shape192-181" transform="translate(435.772,-121.484)">
			<title>Dynamic connector.192</title>
			<path d="M7.09 274.49 L7.09 283.35" class="st17"/>
		</g>
		<g id="shape195-187" transform="translate(486.607,-121.484)">
			<title>Dynamic connector.195</title>
			<path d="M7.09 274.49 L7.09 283.35" class="st17"/>
		</g>
		<g id="shape196-192" transform="translate(537.442,-121.484)">
			<title>Dynamic connector.196</title>
			<path d="M7.09 274.49 L7.09 283.35" class="st17"/>
		</g>
		<g id="shape203-197" transform="translate(442.859,-66.4593)">
			<title>Dynamic connector.203</title>
			<path d="M0 279.59 L0 283.56 L-46.83 283.56" class="st7"/>
		</g>
		<g id="shape205-202" transform="translate(421.726,-61.357)">
			<title>Rectangle.205</title>
			<desc>Tech 1</desc>
			<rect x="0" y="260.313" width="42.2669" height="14.1732" class="st19"/>
			<text x="6.18" y="270.4" class="st4">Tech 1</text>		</g>
		<g id="shape206-205" transform="translate(472.56,-61.357)">
			<title>Rectangle.206</title>
			<desc>Tech 2</desc>
			<rect x="0" y="260.313" width="42.2669" height="14.1732" class="st19"/>
			<text x="6.17" y="270.4" class="st4">Tech 2</text>		</g>
		<g id="shape207-208" transform="translate(523.395,-61.357)">
			<title>Rectangle.207</title>
			<desc>Tech 3</desc>
			<rect x="0" y="260.313" width="42.2669" height="14.1732" class="st19"/>
			<text x="6.21" y="270.4" class="st4">Tech 3</text>		</g>
		<g id="shape208-211" transform="translate(493.694,-62.4908)">
			<title>Dynamic connector.208</title>
			<path d="M0 275.62 L0 287.53 L-97.66 287.53" class="st7"/>
		</g>
		<g id="shape209-216" transform="translate(544.528,-61.357)">
			<title>Dynamic connector.209</title>
			<path d="M0 274.49 L0 293.76 L-148.5 293.76" class="st7"/>
		</g>
		<g id="shape210-221" transform="translate(221.751,-38.7844)">
			<title>Rounded Rectangle.210</title>
			<desc>Metrics computing</desc>
			<path d="M9.35 274.49 L63.37 274.49 A9.34724 9.34724 -180 0 0 72.72 265.14 L72.72 248.18 A9.34724 9.34724 -180 0 0 63.37
						 238.83 L9.35 238.83 A9.34724 9.34724 -180 0 0 0 248.18 L0 265.14 A9.34724 9.34724 -180 0 0 9.35 274.49 Z"
					class="st3"/>
			<text x="20.1" y="253.66" class="st4">Metrics <tspan x="13.4" dy="1.2em" class="st5">computing</tspan></text>		</g>
		<g id="shape211-225" transform="translate(127.772,-38.7844)">
			<title>Rounded Rectangle.211</title>
			<desc>Statistical tests</desc>
			<path d="M9.35 274.49 L63.37 274.49 A9.34724 9.34724 -180 0 0 72.72 265.14 L72.72 248.18 A9.34724 9.34724 -180 0 0 63.37
						 238.83 L9.35 238.83 A9.34724 9.34724 -180 0 0 0 248.18 L0 265.14 A9.34724 9.34724 -180 0 0 9.35 274.49 Z"
					class="st3"/>
			<text x="14.4" y="253.66" class="st4">Statistical <tspan x="26.33" dy="1.2em" class="st5">tests</tspan></text>		</g>
		<g id="shape213-229" transform="translate(351.699,-49.5234)">
			<title>Dynamic connector.213</title>
			<path d="M0 267.4 L-49.19 267.4" class="st7"/>
		</g>
		<g id="group214-234" transform="translate(26.5748,-32.0037)">
			<title>Document.214</title>
			<desc>Metrics and test results</desc>
			<g id="shape215-235">
				<title>Sheet.215</title>
				<path d="M35.43 234.65 L26.62 225.27 L0 225.27 L0 274.49 L35.43 274.49 L35.43 234.65 Z" class="st3"/>
			</g>
			<g id="shape216-237" transform="translate(6.45915,-9.90019)">
				<title>Sheet.216</title>
				<path d="M13.29 274.49 L22.33 274.49 L22.33 273.24 L13.29 273.24 L13.29 274.49 ZM0 268.62 L22.33 268.62 L22.33 267.37
							 L0 267.37 L0 268.62 ZM0 262.76 L22.33 262.76 L22.33 261.51 L0 261.51 L0 262.76 ZM0 256.9 L22.33 256.9
							 L22.33 255.65 L0 255.65 L0 256.9 ZM0 251.03 L9.04 251.03 L9.04 249.78 L0 249.78 L0 251.03 ZM0 245.17
							 L9.04 245.17 L9.04 243.92 L0 243.92 L0 245.17 ZM19.91 235.5 L19.91 244.57 L28.43 244.57 L19.91 235.5
							 Z" class="st6"/>
			</g>
			<g id="shape214-240">
				<text x="-18" y="287.49" class="st4">Metrics and test <tspan x="3.51" dy="1.2em" class="st5">results</tspan></text>			</g>
		</g>
		<g id="shape217-243" transform="translate(127.772,-49.5234)">
			<title>Dynamic connector.217</title>
			<path d="M0 267.4 L-57.72 267.4" class="st7"/>
		</g>
		<g id="shape218-248" transform="translate(221.751,-49.5234)">
			<title>Dynamic connector.218</title>
			<path d="M0 267.4 L-13.22 267.4" class="st11"/>
		</g>
	</g>
</svg>
